<?xml version="1.0"?>
<svg xmlns="http://www.w3.org/2000/svg" id="Layer_1" enable-background="new 0 0 511.574 511.574" height="512px" viewBox="0 0 511.574 511.574" width="512px"><g><path d="m496.338 353.544-29.338-153.409v-74h-75.609c-5.053-70.399-63.939-126.135-135.604-126.135s-130.551 55.736-135.603 126.135h-75.61v74l-29.338 153.409c-8.751 38.534.343 78.346 24.973 109.264 24.688 30.992 61.573 48.767 101.197 48.767h228.763c39.624 0 76.508-17.774 101.197-48.767 24.629-30.918 33.723-70.73 24.972-109.264zm-240.551-323.544c55.114 0 100.527 42.298 105.502 96.135h-211.004c4.975-53.837 50.388-96.135 105.502-96.135zm-181.213 126.135h362.426v43.844c-14.321 65.677-71.718 113.787-138.461 116.888v-36.71h-85.504v36.71c-66.742-3.101-124.14-51.211-138.461-116.888zm193.965 154.022v44.006h-25.504v-44.006zm179.361 133.958c-18.964 23.806-47.296 37.459-77.732 37.459h-228.762c-30.436 0-58.768-13.653-77.732-37.459s-25.938-54.474-19.134-84.139l.061-.268 19.775-103.405c10.907 19.266 25.354 36.505 42.697 50.619 30.003 24.418 67.395 38.472 105.962 39.967v37.274h85.504v-37.273c38.567-1.495 75.958-15.548 105.962-39.967 17.343-14.115 31.79-31.354 42.697-50.619l19.724 103.137.112.536c6.804 29.665-.17 60.333-19.134 84.138z" data-original="#000000" class="active-path" data-old_color="#000000" fill="#2646FF"/></g> </svg>
