<?xml version="1.0" encoding="utf-8"?>
<!-- Generator: Adobe Illustrator 24.2.3, SVG Export Plug-In . SVG Version: 6.00 Build 0)  -->
<svg version="1.1" id="Layer_1" xmlns="http://www.w3.org/2000/svg" xmlns:xlink="http://www.w3.org/1999/xlink" x="0px" y="0px"
	 viewBox="0 0 512 512" style="enable-background:new 0 0 512 512;" xml:space="preserve">
<style type="text/css">
	.st0{fill:#ADADAD;}
</style>
<g>
	<path class="st0" d="M496.8,353.8l-29.4-153.5v-74.1h-75.7C386.7,55.8,327.7,0,256,0S125.3,55.8,120.3,126.2H44.6v74.1L15.2,353.8
		c-8.8,38.6,0.3,78.4,25,109.4S101.8,512,141.5,512h229c39.7,0,76.6-17.8,101.3-48.8C496.4,432.2,505.5,392.4,496.8,353.8z M256,30
		c55.2,0,100.6,42.3,105.6,96.2H150.4C155.4,72.4,200.8,30,256,30L256,30z M74.6,156.3h362.7v43.9c-14.3,65.7-71.8,113.9-138.6,117
		v-36.7h-85.6v36.7C146.4,314,89,265.9,74.6,200.1V156.3z M268.8,310.4v44h-25.5v-44H268.8z M448.3,444.5
		c-19,23.8-47.3,37.5-77.8,37.5h-229c-30.5,0-58.8-13.7-77.8-37.5s-26-54.5-19.1-84.2l0.1-0.3l19.8-103.5
		c10.9,19.3,25.4,36.5,42.7,50.7c30,24.4,67.5,38.5,106.1,40v37.3h85.6v-37.3c38.6-1.5,76-15.6,106.1-40
		c17.4-14.1,31.8-31.4,42.7-50.7l19.7,103.2l0.1,0.5C474.2,390,467.3,420.7,448.3,444.5L448.3,444.5z"/>
</g>
</svg>
