<?xml version="1.0" encoding="utf-8"?>
<!-- Generator: Adobe Illustrator 24.2.3, SVG Export Plug-In . SVG Version: 6.00 Build 0)  -->
<svg version="1.1" id="Layer_1" xmlns="http://www.w3.org/2000/svg" xmlns:xlink="http://www.w3.org/1999/xlink" x="0px" y="0px"
	 viewBox="0 0 512 512" style="enable-background:new 0 0 512 512;" xml:space="preserve">
<style type="text/css">
	.st0{fill:#ADADAD;}
</style>
<g>
	<g>
		<g>
			<path class="st0" d="M448.9,441.5H63.1C28.3,441.5,0,413.2,0,378.4c0-25.7,15.4-48.7,39.2-58.4l201-82.4v-58.5H256
				c21.2,0,38.5-17.3,38.5-38.5s-17.3-38.5-38.5-38.5s-38.5,17.3-38.5,38.5h-31.7c0-38.7,31.5-70.1,70.1-70.1S326,102,326,140.6
				c0,33.2-23.2,61.1-54.3,68.3v28.6l201,82.4c23.8,9.8,39.2,32.7,39.2,58.4C512,413.2,483.7,441.5,448.9,441.5z M256,265.3
				L51.2,349.2c-11.9,4.9-19.5,16.3-19.5,29.1c0,17.3,14.1,31.5,31.5,31.5H449c17.3,0,31.5-14.1,31.5-31.5
				c0-12.8-7.7-24.3-19.5-29.1L256,265.3z"/>
		</g>
	</g>
</g>
</svg>
