<?xml version="1.0" encoding="utf-8"?>
<!-- Generator: Adobe Illustrator 24.2.3, SVG Export Plug-In . SVG Version: 6.00 Build 0)  -->
<svg version="1.1" id="Capa_1" xmlns="http://www.w3.org/2000/svg" xmlns:xlink="http://www.w3.org/1999/xlink" x="0px" y="0px"
	 viewBox="0 0 512 512" style="enable-background:new 0 0 512 512;" xml:space="preserve">
<style type="text/css">
	.st0{fill:#919191;}
</style>
<g>
	<g>
		<path class="st0" d="M504.5,88.2H7.5c-4.2,0-7.5,3.4-7.5,7.5v320.6c0,4.1,3.4,7.5,7.5,7.5h497c4.2,0,7.5-3.4,7.5-7.5V95.7
			C512,91.5,508.6,88.2,504.5,88.2z M384.8,408.8H15V103.2h369.7L384.8,408.8L384.8,408.8z M497,408.8h-97.2V103.2H497V408.8z"/>
	</g>
</g>
<g>
	<g>
		<path class="st0" d="M352.2,152.3h-39.6c-4.2,0-7.5,3.4-7.5,7.5s3.4,7.5,7.5,7.5h32.1v177.3H55.1V167.3h221.4
			c4.2,0,7.5-3.4,7.5-7.5s-3.4-7.5-7.5-7.5H47.6c-4.2,0-7.5,3.4-7.5,7.5v192.4c0,4.1,3.4,7.5,7.5,7.5h304.6c4.2,0,7.5-3.4,7.5-7.5
			V159.8C359.7,155.7,356.3,152.3,352.2,152.3z"/>
	</g>
</g>
<g>
	<g>
		<path class="st0" d="M448.4,296.6c-17.4,0-31.6,14.2-31.6,31.6s14.2,31.6,31.6,31.6s31.6-14.2,31.6-31.6
			C479.9,310.7,465.8,296.6,448.4,296.6z M431.8,328.1c0-9.1,7.4-16.5,16.5-16.5c1.8,0,3.5,0.3,5.1,0.8l-20.8,20.8
			C432.1,331.6,431.8,329.9,431.8,328.1z M448.4,344.7c-1.8,0-3.5-0.3-5.1-0.8l20.8-20.8c0.5,1.6,0.8,3.3,0.8,5.1
			C464.9,337.3,457.5,344.7,448.4,344.7z"/>
	</g>
</g>
<g>
	<g>
		<path class="st0" d="M448.4,224.4c-17.4,0-31.6,14.2-31.6,31.6s14.2,31.6,31.6,31.6S480,273.4,480,256S465.8,224.4,448.4,224.4z
			 M431.8,256c0-9.1,7.4-16.5,16.5-16.5c1.8,0,3.5,0.3,5.1,0.8l-20.8,20.8C432.1,259.5,431.8,257.8,431.8,256z M448.4,272.5
			c-1.8,0-3.5-0.3-5.1-0.8l20.8-20.8c0.5,1.6,0.8,3.3,0.8,5.1C464.9,265.1,457.5,272.5,448.4,272.5z"/>
	</g>
</g>
<g>
	<g>
		<circle class="st0" cx="432.3" cy="159.8" r="7.5"/>
	</g>
</g>
<g>
	<g>
		<circle class="st0" cx="464.9" cy="159.8" r="7.5"/>
	</g>
</g>
<g>
	<g>
		<circle class="st0" cx="432.3" cy="183.9" r="7.5"/>
	</g>
</g>
<g>
	<g>
		<circle class="st0" cx="464.9" cy="183.9" r="7.5"/>
	</g>
</g>
<g>
	<g>
		<circle class="st0" cx="432.3" cy="207.9" r="7.5"/>
	</g>
</g>
<g>
	<g>
		<circle class="st0" cx="464.9" cy="207.9" r="7.5"/>
	</g>
</g>
<g>
	<g>
		<path d="M219.9,299.6c1.9,0,3.8-0.7,5.3-2.2L219.9,299.6z"/>
	</g>
</g>
</svg>
