<?xml version="1.0" encoding="utf-8"?>
<!-- Generator: Adobe Illustrator 24.2.3, SVG Export Plug-In . SVG Version: 6.00 Build 0)  -->
<svg version="1.1" id="Layer_1" xmlns="http://www.w3.org/2000/svg" xmlns:xlink="http://www.w3.org/1999/xlink" x="0px" y="0px"
	 viewBox="0 0 512 512" style="enable-background:new 0 0 512 512;" xml:space="preserve">
<style type="text/css">
	.st0{fill:#2646FF;}
</style>
<g id="Out_line">
	<path class="st0" d="M224,120c0,17.7,14.3,32,32,32s32-14.3,32-32s-14.3-32-32-32C238.3,88,224,102.3,224,120z M256,104
		c8.8,0,16,7.2,16,16s-7.2,16-16,16c-8.8,0-16-7.2-16-16C240,111.2,247.2,104,256,104z"/>
	<path class="st0" d="M187.4,185.3c8.3-4.5,18-8,29.5-10.6c8.2-1.9,15.6-6.2,21.1-12.5l-12-10.6c-3.3,3.8-7.7,6.4-12.6,7.5
		c-13,3-24,6.9-33.6,12.1c-27.5,14.9-50,37.4-64.8,64.9l14.1,7.6C142.5,219,162.7,198.7,187.4,185.3z"/>
	<path class="st0" d="M281.8,81.8c1.5-6.6,3.8-12.9,7-18.8c12.7,4,26.2-3,30.2-15.7c4-12.7-3-26.2-15.7-30.2
		c-12.7-4-26.2,3-30.2,15.7c-2.2,6.9-1.1,14.4,2.8,20.4c-4.5,7.8-7.8,16.3-9.8,25.1L281.8,81.8z M296,32c4.4,0,8,3.6,8,8s-3.6,8-8,8
		s-8-3.6-8-8C288,35.6,291.6,32,296,32z"/>
	<path class="st0" d="M286,151.6l-12,10.6c5.5,6.3,12.9,10.7,21.1,12.5c11.5,2.6,21.2,6.1,29.5,10.6c24.7,13.4,45,33.7,58.3,58.5
		l14.1-7.6c-14.8-27.5-37.3-50.1-64.8-64.9c-9.6-5.2-20.6-9.2-33.6-12.1C293.7,158,289.3,155.4,286,151.6z"/>
	<path class="st0" d="M216,64c2.4,0,4.9-0.4,7.2-1.1c3.2,5.9,5.6,12.3,7,18.8l15.6-3.5c-2-8.8-5.3-17.3-9.8-25.1
		c7.3-11.1,4.2-25.9-6.9-33.2s-25.9-4.2-33.2,6.9s-4.2,25.9,6.9,33.2C206.7,62.6,211.3,64,216,64z M216,32c4.4,0,8,3.6,8,8
		s-3.6,8-8,8s-8-3.6-8-8C208,35.6,211.6,32,216,32z"/>
	<path class="st0" d="M430.8,326c12.4-12.6,12.2-32.8-0.3-45.2c-2-1.9-4.2-3.6-6.6-5c2.1-13.1-6.7-25.4-19.8-27.5
		c-13.1-2.1-25.4,6.7-27.5,19.8c-1,6.4,0.6,13,4.5,18.3c-7,11-6.7,25.1,0.9,35.7c-8.6,8.8-11.5,21.7-7.3,33.3
		c-10.7,6.1-16.9,17.8-15.9,30.1c-11.9,3.1-21,12.7-23.4,24.7c-12.3-0.2-23.6,6.6-29.2,17.6c-11.8-3.5-24.6,0-32.9,9.2
		c-10.4-6.7-23.7-6.7-34.2-0.1c-8.3-9.1-21.1-12.6-32.8-9.1c-5.5-11-16.9-17.8-29.2-17.6c-2.4-12.1-11.5-21.7-23.4-24.7
		c0.9-12.3-5.3-24-15.9-30.1c4.2-11.6,1.3-24.5-7.3-33.3c7.5-10.6,7.9-24.7,0.9-35.7c8-10.6,5.9-25.7-4.7-33.6s-25.7-5.9-33.6,4.7
		c-3.9,5.2-5.6,11.9-4.5,18.3c-15.3,8.8-20.6,28.3-11.9,43.6c1.4,2.4,3,4.6,5,6.6c-10.2,14.4-6.9,34.3,7.5,44.6
		c0.8,0.6,1.7,1.1,2.6,1.7c-0.2,0.5-0.3,1-0.5,1.4c-5.2,16.9,4.3,34.8,21.1,40c0.5,0.2,1,0.3,1.5,0.4c-1.3,17.6,11.9,33,29.5,34.3
		c0.8,0.1,1.6,0.1,2.4,0.1c0.2,0,0.4,0,0.6,0c0.1,0.5,0.2,1,0.3,1.5c4.2,17.1,21.5,27.6,38.7,23.4c0.5-0.1,1-0.3,1.6-0.4
		c7.9,15.8,27.2,22.1,42.9,14.2c0.9-0.5,1.8-1,2.7-1.5c11.9,13.1,32.1,14,45.1,2.2c0.8-0.7,1.5-1.5,2.3-2.3
		c14.9,9.5,34.7,5.1,44.1-9.8c0.6-0.9,1.1-1.9,1.6-2.8c16.9,5.1,34.7-4.5,39.8-21.5c0.1-0.5,0.3-1,0.4-1.5c0.1-0.5,0.2-1,0.3-1.5
		c0.2,0,0.4,0,0.6,0c17.7,0,32-14.3,32-32c0-0.8,0-1.6-0.1-2.4c17.1-4.4,27.4-21.8,23-38.9c-0.3-1-0.6-2-0.9-2.9
		c15.3-8.8,20.6-28.4,11.8-43.7c-0.3-0.4-0.5-0.9-0.8-1.3C431.4,326.8,431.1,326.4,430.8,326z M400.2,264c4.2,0,7.7,3.3,8,7.6
		c-0.7,0-1.3,0-2,0c-4.6,0.3-9.2,1.5-13.3,3.7c-1.8-4-0.1-8.8,3.9-10.6C397.9,264.2,399.1,264,400.2,264z M392,304.5
		c-0.5-8.8,6.3-16.4,15.1-16.9c8.8-0.5,16.4,6.3,16.9,15.1c0.3,4.9-1.7,9.7-5.5,13c-2.2-1.1-4.5-1.9-6.9-2.4
		c-5.2-1.2-10.7-1-15.8,0.6C393.5,311.2,392.2,307.9,392,304.5L392,304.5z M112,264c4.4,0,8,3.6,8,8c0,1.2-0.2,2.3-0.7,3.4
		c-4.1-2.2-8.6-3.5-13.3-3.7c-0.7,0-1.3,0-2,0C104.3,267.3,107.8,264,112,264z M88.3,302.7c0.5-8.8,8-15.6,16.8-15.1
		c8.8,0.5,15.6,8,15.1,16.8c-0.2,3.4-1.5,6.7-3.7,9.4c-7.6-2.2-15.7-1.6-22.8,1.8C90,312.4,88,307.6,88.3,302.7z M104.1,328.9
		c8.6-1.9,17.1,3.6,19,12.2c0.7,3.4,0.4,6.9-1,10c-5.4-0.1-10.7,1.2-15.4,3.7c-2.2,1.1-4.2,2.5-6.1,4.2c-8-3.8-11.4-13.3-7.6-21.3
		C95.2,333.2,99.3,329.9,104.1,328.9z M107.5,390.6c-4.1-7.8-1.2-17.5,6.6-21.6s17.5-1.2,21.6,6.6c1.6,3.1,2.2,6.5,1.7,10
		c-7.6,2-14.2,6.7-18.6,13.3C114,398,109.8,394.9,107.5,390.6L107.5,390.6z M150.2,425.7c-1.3,2.1-2.3,4.3-3,6.7
		c-8.8,0.9-16.6-5.6-17.5-14.4s5.6-16.6,14.4-17.5c8.7-0.9,16.4,5.4,17.5,14.1C156.8,417.3,152.9,421.1,150.2,425.7L150.2,425.7z
		 M169.3,455.9c-7.6-4.6-10-14.4-5.5-22s14.4-10,22-5.5c3,1.8,5.3,4.5,6.6,7.7c-5.5,5.6-8.7,13.1-9,21
		C178.7,458.9,173.6,458.5,169.3,455.9L169.3,455.9z M211,473.9c-8.5-2.4-13.5-11.2-11.2-19.7c2.4-8.5,11.2-13.5,19.7-11.2
		c3.3,0.9,6.3,2.9,8.4,5.6c-3.8,6.9-4.9,15-3.1,22.6C220.9,474.2,215.8,475.2,211,473.9L211,473.9z M256,480c-8.8,0-16-7.2-16-16
		s7.2-16,16-16c8.8,0,16,7.2,16,16C272,472.8,264.8,480,256,480z M301.2,473.9c-4.8,1.3-10,0.3-14-2.7c1.7-7.6,0.7-15.5-3-22.3
		c5.3-7.1,15.4-8.5,22.4-3.1s8.5,15.4,3.1,22.4C307.6,470.9,304.6,472.9,301.2,473.9L301.2,473.9z M342.9,455.9
		c-4.2,2.5-9.4,3-14,1.2c-0.3-7.9-3.5-15.3-9-21c3.4-8.2,12.7-12.1,20.9-8.7c8.2,3.4,12.1,12.7,8.7,20.9
		C348.2,451.5,345.9,454.1,342.9,455.9z M378.3,427.4c-3.4,3.6-8.3,5.4-13.2,4.9c-0.8-2.3-1.8-4.6-3-6.7c-2.8-4.6-6.6-8.4-11.3-11.1
		c1-8.8,9-15,17.8-14c8.8,1,15,9,14,17.8C382.1,421.8,380.6,425,378.3,427.4L378.3,427.4z M404.7,390.6c-2.3,4.4-6.5,7.4-11.4,8.3
		c-4.3-6.6-10.9-11.3-18.6-13.3c-1.3-8.7,4.6-16.9,13.4-18.2c8.7-1.3,16.9,4.6,18.2,13.4C406.9,384,406.3,387.5,404.7,390.6
		L404.7,390.6z M420.3,347.9c-1.1,4.8-4.3,8.9-8.7,11c-5.9-5.2-13.6-8-21.5-7.9c-3.6-8-0.1-17.5,8-21.2c8-3.6,17.5-0.1,21.2,8
		C420.7,341.1,421.1,344.6,420.3,347.9L420.3,347.9z"/>
</g>
</svg>
