<?xml version="1.0" encoding="utf-8"?>
<!-- Generator: Adobe Illustrator 24.2.3, SVG Export Plug-In . SVG Version: 6.00 Build 0)  -->
<svg version="1.1" id="Layer_1" xmlns="http://www.w3.org/2000/svg" xmlns:xlink="http://www.w3.org/1999/xlink" x="0px" y="0px"
	 viewBox="0 0 512 512" style="enable-background:new 0 0 512 512;" xml:space="preserve">
<style type="text/css">
	.st0{fill:#919191;}
</style>
<g id="Page-1">
	<g id="_x30_08---Coffee-and-Croissant">
		<path id="Shape" class="st0" d="M491.9,405.3h-57.6c21.6-9.3,39.9-24.8,52.7-44.5c2.7-4.5,3.1-10.1,0.9-14.9
			c-0.6-1.3-1.3-2.8-2-4.5c10.1-14.6,17.7-30.9,22.3-48.1c3.9-18.6,4.8-37.7,2.7-56.6c-0.9-8-6.3-14.8-13.9-17.4
			c-8.7-41.5-20.3-48.2-24.2-50.3c-5-2.9-11.1-3.3-16.4-1.2c-21.1,8-21.2,26.9-21.3,43.6c0,4-0.1,8.1-0.4,12.1
			c-8.2,1.9-14.8,7.9-17.5,15.9c-1.7,5-4.1,9.7-7,14c-3.5-1.9-7.1-3.5-10.9-5c-3.5-1.3-7.4-1.3-10.9,0l-43.8,16.7
			c-3.4,1.3-6.3,3.8-8.1,7c-2,3.7-3.9,7.5-5.5,11.4c-2.3-0.7-4.5-1.5-6.7-2.5v-97.7c0-9.4-7.6-17.1-17.1-17.1H102.4
			c-9.4,0-17.1,7.6-17.1,17.1v11.6c-7.9-2.1-16-3.1-24.1-3.1C0,192,0,259.2,0,281.3c0,49.4,24,81.3,61.2,81.3
			c9.8-0.1,19.6-1.5,29.1-4.2c6.3,18.9,18.5,35.4,34.8,46.8H54.2c-4.9-0.4-9.8,1.1-13.6,4.4c-3.8,3.2-6.1,7.8-6.5,12.7v17.1
			c0,19.1,18.9,34.1,43.1,34.1h391.7c24.2,0,43.1-15,43.1-34.1v-17.1c-0.4-4.9-2.7-9.5-6.5-12.7S496.9,404.9,491.9,405.3
			L491.9,405.3z M462.4,183.7c0.6-0.3,1.4-0.3,2,0.1c1.5,0.8,8.5,6.2,14.9,34.4c-7.2,0.3-16.5,0.9-27.3,2.3c0.1-3.2,0.1-6.3,0.1-9.2
			C452.2,193.7,453.1,187.2,462.4,183.7z M433.5,244.6c0.9-2.5,3.1-4.4,5.7-4.8c1.6-0.3,3.1-0.6,4.9-0.9c14.9-2.5,30-3.8,45.1-4h0.6
			c2.1-0.1,3.9,1.3,4.2,3.4c2,17,1.2,34.2-2.3,50.9c-3.2,12.2-8.2,23.8-14.8,34.5c-12.9-23.9-30.7-44.8-52.1-61.4
			C428.4,256.9,431.4,250.9,433.5,244.6z M351.1,281l42.8-16.3c45.7,18,73.4,76.6,78.5,87.6c-4.7,8.2-19.9,28.7-59,43.6
			c-13.4,5.3-27.5,8.5-41.9,9.5h-11.3c-6-0.3-11.9-1.3-17.5-3.2c-0.5-2.1-1.1-5-1.8-8.4C337,372.6,329.9,319.5,351.1,281L351.1,281z
			 M299.2,392.2c8.4,4.1,17.2,7.4,26.2,10c0.3,1.2,0.5,2.2,0.7,3.2h-41.9C289.6,401.5,294.6,397.1,299.2,392.2L299.2,392.2z
			 M322,383.1c-11.5-3.8-22.3-9.4-32-16.6c-12.7-10.6-23.5-23.4-32-37.6c-1-2.2-0.4-4.8,1.5-6.2c0.1-0.1,0.2-0.2,0.3-0.3
			c11.8-10.1,24.3-19.4,37.5-27.6c1.4-0.9,2.7-1.8,4.4-2.7c2-1.3,4.5-1.3,6.6-0.1c5.3,3.4,11.1,6,17.2,7.8
			C318.7,327,317.6,355.4,322,383.1L322,383.1z M248.1,266.5c0.3-0.9,1-1.6,1.9-1.9c9-3.4,13.2,0.7,23.7,14.2
			c1.8,2.3,3.7,4.8,5.8,7.3c-9.3,6.2-17,12-22.7,16.7C247.9,282.9,246.3,271.1,248.1,266.5L248.1,266.5z M85.3,306.1
			c-7.6,3.4-15.8,5.2-24.1,5.4c-6.5,0-10-15.5-10-30.1c0-38.1,5.8-38.1,10-38.1c8.7-0.4,17.3,2.4,24.1,7.9V306.1z M17.1,281.4
			c0-33.7,5-72.3,44.1-72.3c8.2,0,16.4,1.2,24.1,3.8v18.3c-7.6-3.4-15.8-5.1-24.1-5c-25,0-27.1,26.1-27.1,55.2
			c0,29.6,10.1,47.2,27.1,47.2c8.2-0.1,16.4-1.5,24.1-4.3v4.3c0,4.5,0.4,8.9,1.1,13.3c-8.2,2.4-16.7,3.7-25.2,3.7
			C33.6,345.6,17.1,321.6,17.1,281.4L17.1,281.4z M104.4,345.8c-1.3-5.7-2-11.5-2-17.3V183.4h204.8v90.8c-4.5-0.4-9,0.5-12.9,2.6
			c-2.5-2.8-4.8-5.7-7.1-8.6c-9.7-12.4-21.7-27.8-43.2-19.6c-5.4,2-9.7,6.2-11.7,11.6c-4.4,11.5-0.6,29.5,11.6,54.9
			c-4.5,6.9-4.6,15.7-0.4,22.7c9.6,16,21.8,30.2,36.1,42.1c1.5,1.2,3,2.2,4.6,3.3c-14.3,14.1-33.6,22.1-53.7,22h-51.2
			C143.4,405.5,112.3,380.7,104.4,345.8L104.4,345.8z M494.9,439.5c0,9.3-11.9,17.1-26,17.1H77.2c-14.1,0-26-7.8-26-17.1v-16.3
			c0.9-0.5,1.9-0.8,3-0.8H492c1,0,2.1,0.2,3,0.8L494.9,439.5z"/>
		<path id="Shape_1_" class="st0" d="M187.7,132.3c0,4.7,3.8,8.5,8.5,8.5s8.5-3.8,8.5-8.5c-0.1-6,2.4-11.8,6.7-16
			c13.9-15.1,13.9-38.3,0-53.3c-4.3-4.2-6.7-10-6.7-16c0-4.7-3.8-8.5-8.5-8.5s-8.5,3.8-8.5,8.5c-0.1,9.9,3.6,19.4,10.4,26.7
			c4.3,4.2,6.7,10,6.7,16s-2.4,11.8-6.7,16C191.4,112.8,187.7,122.4,187.7,132.3z"/>
		<path id="Shape_2_" class="st0" d="M136.5,132.3c0,4.7,3.8,8.5,8.5,8.5s8.5-3.8,8.5-8.5c-0.1-6,2.4-11.8,6.7-16
			c13.9-15.1,13.9-38.3,0-53.3c-4.3-4.2-6.7-10-6.7-16c0-4.7-3.8-8.5-8.5-8.5s-8.5,3.8-8.5,8.5c-0.1,9.9,3.6,19.4,10.4,26.7
			c4.3,4.2,6.7,10,6.7,16s-2.4,11.8-6.7,16C140.2,112.8,136.5,122.4,136.5,132.3z"/>
		<path id="Shape_3_" class="st0" d="M238.9,132.3c0,4.7,3.8,8.5,8.5,8.5s8.5-3.8,8.5-8.5c-0.1-6,2.4-11.8,6.7-16
			c13.9-15.1,13.9-38.3,0-53.3c-4.3-4.2-6.7-10-6.7-16c0-4.7-3.8-8.5-8.5-8.5s-8.5,3.8-8.5,8.5c-0.1,9.9,3.6,19.4,10.4,26.7
			c4.3,4.2,6.7,10,6.7,16s-2.4,11.8-6.7,16C242.6,112.8,238.9,122.4,238.9,132.3z"/>
	</g>
</g>
</svg>
