<?xml version="1.0" encoding="utf-8"?>
<!-- Generator: Adobe Illustrator 24.2.3, SVG Export Plug-In . SVG Version: 6.00 Build 0)  -->
<svg version="1.1" id="Capa_1" xmlns="http://www.w3.org/2000/svg" xmlns:xlink="http://www.w3.org/1999/xlink" x="0px" y="0px"
	 viewBox="0 0 512 512" style="enable-background:new 0 0 512 512;" xml:space="preserve">
<style type="text/css">
	.st0{fill:#919191;}
</style>
<g>
	<g>
		<path class="st0" d="M399.4,218.5c-1.4,0-2.8,0-4.2,0.1c-13.5-14-30.4-24.1-48.8-29.5c4.2-44.1-15.3-86.4-34.6-116.3
			c-2.3-3.6-7.2-4.6-10.7-2.2c-3.4,2.3-4.4,7-2.1,10.5c17.7,27.4,35.5,65.5,32.4,104.6c-5.6-0.8-11.2-1.3-16.9-1.3
			c-17,0-33.2,3.8-47.7,10.6v-13.7l36.8-36.8c3-3,3.3-7.8,0.4-10.9c-3-3.2-7.9-3.2-11-0.2l-26.2,26.2v-41c0-4.2-3.2-7.8-7.4-8
			c-4.3-0.1-7.9,3.3-7.9,7.7v41.3l-26.2-26.2c-3-3-7.8-3-10.8,0s-3,7.8,0,10.8l37,37v22.4c-13.7,9.3-25.2,21.5-33.7,35.7
			c-1.2-31.7-10.9-58.8-29.2-81c-0.2-0.2-0.4-0.4-0.6-0.7c8.8-58.4,55.4-110.3,71.2-126.3c4.1,4.2,10.2,10.7,17.2,19.1
			c2.7,3.2,7.4,3.7,10.6,1.1l0,0c3.4-2.7,3.9-7.6,1.1-10.9C275,24.8,264.8,15.4,264.3,15c-2.9-2.7-7.4-2.7-10.4,0
			c-2.7,2.5-63.3,58.9-79,129.3c-23.9-21.4-57.7-36.8-99.1-44.8c-37.3-7.2-67.2-6.1-68.5-6c-4,0.2-7.2,3.4-7.3,7.3
			c-0.1,1.3-1.2,31.2,6,68.5c9.7,49.9,30.1,88.9,59,112.7c3.5,2.9,7.1,5.5,10.8,7.9c-47.8,39.6-74,97.3-75.2,99.9
			c-1.6,3.6-0.2,7.9,3.3,9.8c3,1.7,64.1,35,129.4,35c9.3,0,18.7-0.7,28.1-2.2c17.6,39.3,57,66.8,102.8,66.8c43.5,0,81.3-24.8,100-61
			c11.3,3.7,23.1,5.6,35.1,5.6c19.8,0,39-5.1,56-14.9c3.8-2.2,4.9-7.2,2.5-10.9c-2.3-3.4-6.7-4.3-10.2-2.3
			c-14.6,8.4-31.2,12.8-48.3,12.8c-9.9,0-19.7-1.5-29-4.4c4.1-11.7,6.4-24.3,6.4-37.4c0-44.4-25.8-82.8-63.2-101.1
			c15.7-29.5,45.3-48.9,79-51.3c2.3-0.2,4.6-0.2,6.8-0.2c53.6,0,97.2,43.6,97.2,97.2c0,21.8-7.3,42.9-20.6,59.9
			c-2.5,3.2-2.1,7.7,0.8,10.4l0,0c3.3,3,8.5,2.5,11.2-1c15.5-19.7,23.9-44.1,23.9-69.4C512,269,461.5,218.5,399.4,218.5z
			 M74.9,270.1C42,243,27.5,198.9,21.2,166.6c-4.9-25.1-5.8-47.1-5.9-58c10.8,0.1,32.7,1,57.6,5.8c58.6,11.4,88.8,35.5,103.8,53.7
			c23.4,28.4,30.9,66.6,22.4,113.5l-23.4-23.4v-68c0-4.2-3.4-7.7-7.7-7.7s-7.7,3.4-7.7,7.7v52.7l-33.7-33.7v-52.4
			c0-4.2-3.4-7.7-7.7-7.7s-7.7,3.4-7.7,7.7v37.1L82,164.7c-3-3-7.8-3-10.8,0s-3,7.8,0,10.8l29.2,29.2H63.6c-4.2,0-7.7,3.4-7.7,7.7
			s3.4,7.7,7.7,7.7H116l33.7,33.7H97c-4.2,0-7.7,3.4-7.7,7.7s3.4,7.7,7.7,7.7h68l23.4,23.4C141.4,301,103.3,293.5,74.9,270.1z
			 M131.9,343.2l-46-23c-3.8-1.9-8.4-0.4-10.3,3.4s-0.4,8.4,3.4,10.3l32.3,16.2l-52.9,17.6c-4,1.3-6.2,5.7-4.8,9.7
			c1.1,3.2,4.1,5.2,7.3,5.2c0.8,0,1.6-0.1,2.4-0.4l54.1-18.1l-17,34c-1.9,3.8-0.4,8.4,3.4,10.3c1.1,0.5,2.3,0.8,3.4,0.8
			c2.8,0,5.5-1.6,6.9-4.2l23.8-47.7l19.5-6.5c-3.8,11.2-5.8,23.2-5.8,35.6c0,10.8,1.5,21.2,4.4,31.1C99,425.7,37.6,399,17.9,389.4
			c8.5-16.7,33.8-61.5,72.4-91.5c18.4,8.8,39.2,13.3,62.4,13.3c9.7,0,19.7-0.8,30.2-2.3c-6.6,6.9-12.3,14.6-17,23L131.9,343.2z
			 M361.5,386.5c0,53.6-43.6,97.2-97.2,97.2S167,440.1,167,386.5s43.6-97.2,97.2-97.2S361.5,332.9,361.5,386.5z M299.4,279.5
			c-11-3.6-22.8-5.6-35.1-5.6c-16.4,0-32.1,3.5-46.2,9.9c6.4-47.4,47.2-84.1,96.4-84.1c22.2,0,43.7,7.7,60.9,21.4
			C342.7,228.2,314.8,249.5,299.4,279.5z"/>
	</g>
</g>
<g>
	<g>
		<path class="st0" d="M293.5,355.4c-19.6,0-35.5,15.9-35.5,35.5s15.9,35.5,35.5,35.5s35.5-15.9,35.5-35.5S313.1,355.4,293.5,355.4z
			 M293.5,411.1c-11.1,0-20.2-9-20.2-20.2c0-11.1,9-20.2,20.2-20.2c11.1,0,20.2,9,20.2,20.2C313.7,402,304.7,411.1,293.5,411.1z"/>
	</g>
</g>
<g>
	<g>
		<path class="st0" d="M397.4,248.7c-22.9,0-40.2,10.4-40.2,24.3s17.3,24.3,40.2,24.3c22.9,0,40.2-10.4,40.2-24.3
			S420.4,248.7,397.4,248.7z M417,277.9c-5,2.6-12.2,4-19.6,4s-14.5-1.5-19.6-4c-3.9-2-5.4-4.1-5.4-4.9s1.4-2.9,5.4-4.9
			c5-2.6,12.2-4,19.6-4s14.5,1.5,19.6,4c3.9,2,5.4,4.1,5.4,4.9C422.3,273.8,420.9,275.9,417,277.9z"/>
	</g>
</g>
</svg>
