<?xml version="1.0" encoding="utf-8"?>
<!-- Generator: Adobe Illustrator 24.2.3, SVG Export Plug-In . SVG Version: 6.00 Build 0)  -->
<svg version="1.1" id="Capa_1" xmlns="http://www.w3.org/2000/svg" xmlns:xlink="http://www.w3.org/1999/xlink" x="0px" y="0px"
	 viewBox="0 0 512 512" style="enable-background:new 0 0 512 512;" xml:space="preserve">
<style type="text/css">
	.st0{fill:#919191;}
</style>
<g id="XMLID_14_">
	<g id="XMLID_139_">
		<path id="XMLID_142_" class="st0" d="M504.4,113.7c-6.2-7.3-15.2-11.5-24.7-11.5h-22.9C446.6,84.3,427.6,73,406.6,73h-4.7V38.2
			c0-5.5-4.5-10-10-10c-37.3,0-67.6,30.3-67.6,67.6V127c0,21.7-12,41.5-31.3,51.4l-32.7,16.8c-4.9,2.5-6.8,8.6-4.3,13.5
			c1.8,3.4,5.3,5.4,8.9,5.4c1.5,0,3.1-0.4,4.6-1.1l32.7-16.8c26-13.4,42.2-39.9,42.2-69.2V95.8c0-22.8,16.1-41.9,37.6-46.5v33.8
			c0,5.5,4.5,10,10,10h14.7c15.2,0,28.9,9.1,34.8,23.1c1.6,3.7,5.2,6.1,9.2,6.1h29.1c3.6,0,7.1,1.6,9.4,4.4c2.3,2.8,3.3,6.4,2.7,10
			l-3.7,21.5c-2.3,13.6-14.1,23.5-27.9,23.5h-44.5c-0.1,0-0.2,0-0.3,0c-0.1,0-0.2,0-0.3,0c-5.5,0-10,4.5-10,10v48.9
			c0,35.4-6.8,69.9-20.3,102.5c-0.8,2-1,4.2-0.4,6.3l24.6,94.1c0.4,1.6,1.3,3.1,2.4,4.4l8.8,9.2c1.6,1.7,1.2,3.4,0.8,4.3
			c-0.4,0.9-1.4,2.4-3.7,2.4H384l-43-111.4v-46.2c0-5.5-4.5-10-10-10s-10,4.5-10,10v48.1c0,1.2,0.2,2.5,0.7,3.6l40.9,105.9h-35.2
			c-4.8-31.3-31.9-55.3-64.5-55.3h-11.3l-4.5-26.5c-4.8-28.3-26-50.5-54.1-56.4l-18.9-4c-5.4-1.1-10.7,2.3-11.9,7.7
			c-1.1,5.4,2.3,10.7,7.7,11.9l18.9,4c20,4.2,35.1,20,38.5,40.2l3.9,23.2h-61.6c-5.5,0-10,4.5-10,10s4.5,10,10,10h93.2
			c21.6,0,39.6,15.1,44.2,35.3H168c-50,0-90.7-40.7-90.7-90.7c0-37.5,20.7-71.5,54-88.7l58.2-30c4.9-2.5,6.8-8.6,4.3-13.5
			s-8.6-6.8-13.5-4.3l-58.2,30c-16,8.2-29.5,19.7-40,33.3c-1.1-5.2-1.7-10.6-1.7-16.1c0-27.9,15.1-53.8,39.5-67.5
			c6.6-3.7,9.7-11.2,7.8-18.6c-2-7.8-9-13.2-17-13.3h-0.1h-0.1l0,0C50.7,184.6,1.2,233.7,0,294.2c-0.8,42.2,22.4,81.5,59.5,101.2
			c10.3,50.4,55.1,88.5,108.5,88.5h249.3c9.8,0,18.2-5.6,22.1-14.6c3.8-9,2-19-4.7-26l-7-7.3l-23.1-88.4
			c13.6-34.1,20.5-70.1,20.5-107v-38.9h35.1c23.6,0,43.6-16.9,47.6-40.1l3.7-21.5C513.2,130.6,510.6,121.1,504.4,113.7L504.4,113.7z
			 M20,294.6c0.9-46.2,36.1-84.4,80.5-89.5c-25,18.2-40.1,47.5-40.1,78.8c0,13.5,2.7,26.5,8,38.7c-6.8,14.7-10.7,31-11.1,47.9
			C33.7,352.8,19.4,324.6,20,294.6z"/>
		<path id="XMLID_143_" class="st0" d="M416.7,134.1c1.9-1.9,2.9-4.4,2.9-7.1s-1.1-5.2-2.9-7.1c-1.9-1.9-4.4-2.9-7.1-2.9
			c-2.6,0-5.2,1.1-7.1,2.9c-1.9,1.9-2.9,4.4-2.9,7.1c0,2.7,1.1,5.2,2.9,7.1c1.9,1.9,4.4,2.9,7.1,2.9
			C412.3,137.1,414.8,136,416.7,134.1z"/>
		<path id="XMLID_144_" class="st0" d="M224.9,234.8c2.6,0,5.2-1.1,7.1-2.9c1.9-1.9,2.9-4.4,2.9-7.1s-1.1-5.2-2.9-7.1
			c-1.9-1.9-4.4-2.9-7.1-2.9c-2.6,0-5.2,1.1-7.1,2.9c-1.9,1.9-2.9,4.4-2.9,7.1c0,2.6,1.1,5.2,2.9,7.1S222.2,234.8,224.9,234.8z"/>
	</g>
</g>
</svg>
