<?xml version="1.0" encoding="utf-8"?>
<!-- Generator: Adobe Illustrator 24.2.3, SVG Export Plug-In . SVG Version: 6.00 Build 0)  -->
<svg version="1.1" id="Layer_1" xmlns="http://www.w3.org/2000/svg" xmlns:xlink="http://www.w3.org/1999/xlink" x="0px" y="0px"
	 viewBox="0 0 512 512" style="enable-background:new 0 0 512 512;" xml:space="preserve">
<style type="text/css">
	.st0{fill:#919191;}
</style>
<g>
	<g transform="translate(0 -1)">
		<g>
			<g>
				<path class="st0" d="M138.3,444.9c0.1,0,0.2,0,0.3,0.1C137.9,444.8,137.9,444.8,138.3,444.9z"/>
				<path class="st0" d="M496,385.9c-5.5-4.2-11-7.1-14.8-8.8c-1-0.4-2.1-0.6-3.2-0.7c-1.4,0-4.1-0.1-8-0.3
					c-6.4-0.3-13.6-0.7-21.3-1.4c-22.1-1.9-44.1-5-64.6-9.6c-30.2-6.8-54.1-16.1-69.5-28.1c-0.2-0.2-0.4-0.3-0.6-0.5
					c-2.6-2-4.8-4.1-6.8-6.1c-0.1-0.1-0.2-0.2-0.3-0.3c-0.5-0.5-0.9-1-1.4-1.5c-0.1-0.1-0.3-0.3-0.4-0.4c-1.4-1.6-2.7-3.2-4.1-4.7
					c-18.5-20.5-38.3-35.7-58.2-46.4c-12.1-6.5-21.7-10-27.4-11.4c-2.9-0.7-6,0.1-8.1,2.3l-17.1,17.1c-0.2,0.1-0.3,0.3-0.5,0.4
					c-5,4.8-10.1,9.4-15.6,13.9c-0.4,0.3-0.7,0.6-1,1c-50.3,41.6-91.5,42-124.6,18c-4.7-3.4-8.8-7.1-12.2-10.7
					c-2-2.1-3.3-3.7-3.9-4.5c-3.5-4.9-10.8-4.7-14.1,0.4C3.1,327.1-1.8,354.4,0.7,383c0.9,9.9,2.6,19.3,4.9,27.9c0,0.1,0,0.1,0,0.2
					c-3.3,1.2-5.6,4.3-5.6,8v42.7c0,4.7,3.8,8.5,8.5,8.5H128c2.3,0,4.4-0.9,6-2.5l5-5c3.3,0.9,7.6,2,10.9,2.8c12.2,3,26,6,40.9,8.8
					c60.3,11.3,121.8,16.2,179.5,10.8c53.2-4.9,99.7-18.4,137.6-41.9c2.5-1.6,4-4.3,4-7.2v-25.4c0,0,0,0,0-0.1v-0.1
					c0-0.9-0.1-1.7-0.3-2.4C509.8,399.4,504.1,392.1,496,385.9z M201.8,297.6c0.1-0.1,0.3-0.3,0.4-0.4l13.5-13.5
					c0.5,0.2,1.1,0.4,1.6,0.6c5.1,1.9,10.9,4.4,17.1,7.7l-10.1,10.1c-3.3,3.3-3.3,8.7,0,12.1c3.3,3.3,8.7,3.3,12.1,0l13.1-13.1
					c5.2,3.5,10.4,7.3,15.5,11.5L250,327.7c-3.3,3.3-3.3,8.7,0,12.1c3.3,3.3,8.7,3.3,12.1,0l15.8-15.8c3.5,3.4,7,7.1,10.5,10.9
					c1.3,1.4,2.6,2.9,3.9,4.4c0.2,0.3,0.5,0.5,0.7,0.8c0.4,0.4,0.7,0.8,1.1,1.2c0.1,0.1,0.3,0.3,0.4,0.4c0.6,0.6,1.2,1.3,1.8,1.9
					c-16.4,13.7-40.7,14.2-57.7,0.1l-45.6-37.8C195.9,303.3,198.8,300.5,201.8,297.6z M27.2,322.7c3.2,3,7,6.3,11.4,9.5
					c38.3,27.8,86.4,27.9,141-15.1l48,39.8c24.3,20.2,59.5,18.7,82-2.3c17.5,11.8,41.5,20.7,70.7,27.2c21.3,4.8,44.1,8,66.9,9.9
					c8,0.7,15.4,1.1,22,1.4c2.3,0.1,4.4,0.2,6.2,0.2c1,0.3,1.7,0.6,2.4,1c2.6,1.4,5.3,3.1,7.7,4.9c3,2.3,5.4,4.7,7,7.1
					c-1.1,0.5-2.2,1-3.5,1.6c-8.8,3.9-19.5,7.8-32.3,11.5c-78.2,22.5-186.4,25.2-327.1-5.1c-12.4-2.7-25.3-4-38.6-4l-67.9,0.1
					c-0.4-1.2-0.8-2.6-1.1-4c-2-7.7-3.6-16.1-4.4-25C15.8,360.4,18.6,340.4,27.2,322.7z M494.9,431.3c-34.7,20.5-77.3,32.5-126.1,37
					c-55.9,5.2-115.9,0.5-174.8-10.6c-14.6-2.7-28-5.7-40-8.6c-5.6-1.4-14.1-3.6-15.8-4.1c-2.8-0.6-5.8,0.2-7.8,2.3l-6,6H17.1v-25.6
					l74.1-0.1c12.1,0,23.8,1.2,35,3.6c143.4,30.9,254.5,28.2,335.5,4.8c1.7-0.5,3.3-1,5-1.5c0.1,0,0.1,0,0.2,0
					c1.5-0.5,3.1-0.9,4.5-1.4c0.3-0.1,0.6-0.2,0.9-0.3c1.2-0.4,2.4-0.8,3.6-1.2c0.4-0.1,0.8-0.3,1.1-0.4c1.1-0.4,2.1-0.7,3.2-1.1
					c0.4-0.2,0.8-0.3,1.3-0.5c1-0.4,1.9-0.7,2.9-1.1c0.4-0.2,0.9-0.3,1.3-0.5c0.9-0.3,1.8-0.7,2.7-1c0.4-0.2,0.9-0.3,1.3-0.5
					c0.8-0.3,1.7-0.7,2.5-1c0.4-0.2,0.8-0.4,1.3-0.5c0.5-0.2,1.1-0.5,1.6-0.7L494.9,431.3L494.9,431.3z"/>
				<path class="st0" d="M506.4,172.2c0-0.1,0-0.1,0-0.2c2.3-8.6,4-18,4.9-27.9c2.5-28.6-2.4-55.9-17.7-79.5
					c-3.3-5-10.6-5.2-14.1-0.4c-0.6,0.8-1.9,2.4-3.9,4.5c-3.4,3.6-7.5,7.3-12.2,10.7c-33.1,24-74.3,23.6-124.6-18
					c-0.3-0.3-0.6-0.6-0.9-0.9c-5.5-4.5-10.6-9.1-15.6-14c-0.2-0.1-0.3-0.3-0.5-0.4l-17-17c-2.1-2.1-5.2-3-8.1-2.3
					c-5.7,1.4-15.3,4.9-27.4,11.4c-19.9,10.6-39.8,25.8-58.2,46.4c-1.4,1.5-2.8,3.1-4.1,4.7c-0.1,0.2-0.3,0.3-0.4,0.5
					c-0.4,0.5-0.9,1-1.3,1.5c-0.1,0.1-0.2,0.2-0.3,0.3c-2,2-4.2,4.1-6.8,6.1c-0.2,0.2-0.4,0.3-0.6,0.5c-15.4,12-39.3,21.4-69.5,28.1
					c-20.5,4.6-42.5,7.7-64.6,9.6c-7.7,0.7-14.9,1.1-21.3,1.4c-3.8,0.2-6.6,0.3-8,0.3c-1.1,0-2.2,0.2-3.2,0.7
					c-3.8,1.6-9.3,4.5-14.8,8.8c-8.2,6.2-13.9,13.5-15.7,22.2c-0.2,0.8-0.3,1.6-0.3,2.4v0.1c0,0,0,0,0,0.1v25.4c0,3,1.5,5.7,4,7.2
					c37.9,23.5,84.4,37,137.6,41.9c57.6,5.3,119.2,0.5,179.5-10.8c14.9-2.8,28.6-5.8,40.9-8.8c3.3-0.8,7.6-1.9,10.9-2.8l5,5
					c1.6,1.6,3.8,2.5,6,2.5h119.5c4.7,0,8.5-3.8,8.5-8.5v-42.7C512,176.5,509.6,173.3,506.4,172.2z M217.6,102.9
					c0.1-0.2,0.3-0.3,0.4-0.5c0.4-0.4,0.7-0.8,1.1-1.2c0.2-0.3,0.5-0.5,0.7-0.8c1.3-1.5,2.6-3,3.9-4.4c3.5-3.8,7-7.5,10.5-10.9
					l15.8,15.8c3.3,3.3,8.7,3.3,12.1,0c3.3-3.3,3.3-8.7,0-12.1l-15.1-15.1c5.1-4.2,10.3-8,15.5-11.5l13.1,13.1
					c3.3,3.3,8.7,3.3,12.1,0c3.3-3.3,3.3-8.7,0-12.1l-10.1-10.1c6.2-3.3,12-5.9,17.1-7.7c0.6-0.2,1.1-0.4,1.6-0.6l13.4,13.4
					c0.1,0.1,0.3,0.3,0.4,0.4c3,2.9,6,5.7,9,8.4l-45.6,37.8c-17,14.1-41.3,13.6-57.7-0.1C216.4,104.1,217,103.5,217.6,102.9z
					 M26.4,160.5c2.4-1.9,5.1-3.5,7.7-4.9c0.8-0.4,1.4-0.7,2-1c2.2-0.1,4.3-0.1,6.6-0.2c6.6-0.3,14-0.8,22-1.4
					c22.8-1.9,45.5-5.1,66.9-9.9c29.2-6.5,53.2-15.4,70.7-27.2c22.5,21,57.7,22.5,82,2.3l48-39.8c54.7,43,102.7,42.9,141,15.1
					c4.5-3.2,8.3-6.5,11.4-9.5c8.6,17.7,11.3,37.7,9.5,58.8c-0.8,8.9-2.3,17.3-4.4,25c-0.4,1.4-0.8,2.8-1.1,4l-67.9-0.1
					c-13.3,0-26.2,1.3-38.6,4c-140.7,30.3-248.9,27.7-327.2,5.1c-12.8-3.7-23.5-7.6-32.3-11.5c-1.3-0.6-2.5-1.1-3.5-1.6
					C21,165.2,23.4,162.8,26.4,160.5z M494.9,214.3H387.5l-6-6c-2.1-2.1-5-2.9-7.8-2.3c-1.7,0.5-10.1,2.7-15.8,4.1
					c-11.9,2.9-25.3,5.9-40,8.6c-58.9,11.1-118.9,15.8-174.8,10.6c-48.9-4.5-91.5-16.5-126.1-37v-7.1c0.5,0.2,1.1,0.5,1.6,0.7
					c0.4,0.2,0.8,0.4,1.3,0.5c0.8,0.3,1.7,0.7,2.5,1c0.4,0.2,0.9,0.3,1.3,0.5c0.9,0.3,1.8,0.7,2.7,1c0.4,0.2,0.9,0.3,1.3,0.5
					c0.9,0.4,1.9,0.7,2.9,1.1c0.4,0.2,0.8,0.3,1.3,0.5c1,0.4,2.1,0.7,3.2,1.1c0.4,0.1,0.8,0.3,1.2,0.4c1.2,0.4,2.4,0.8,3.6,1.2
					c0.3,0.1,0.6,0.2,0.9,0.3c1.5,0.5,3,0.9,4.5,1.4c0.1,0,0.2,0.1,0.2,0.1c1.6,0.5,3.3,1,5,1.5c81,23.3,192.1,26.1,335.5-4.8
					c11.2-2.4,22.9-3.6,35-3.6l74.1,0.1L494.9,214.3L494.9,214.3z"/>
				<path class="st0" d="M373.4,206c0.1,0,0.2,0,0.3-0.1C374.1,205.9,374.1,205.9,373.4,206z"/>
			</g>
		</g>
	</g>
</g>
</svg>
