<?xml version="1.0"?>
<svg xmlns="http://www.w3.org/2000/svg" xmlns:xlink="http://www.w3.org/1999/xlink" version="1.1" id="Layer_1" x="0px" y="0px" viewBox="0 0 512.007 512.007" style="enable-background:new 0 0 512.007 512.007;" xml:space="preserve" width="512px" height="512px"><g><g transform="translate(0 -1)">
	<g>
		<g>
			<path d="M138.339,444.914c0.101,0.022,0.202,0.031,0.302,0.056C137.919,444.787,137.885,444.786,138.339,444.914z" data-original="#000000" class="active-path" data-old_color="#000000" fill="#2646FF"/>
			<path d="M495.981,385.856c-5.517-4.22-10.958-7.135-14.801-8.752c-1.007-0.424-2.086-0.65-3.178-0.667     c-1.412-0.022-4.129-0.102-7.964-0.276c-6.428-0.291-13.6-0.747-21.328-1.404c-22.055-1.874-44.098-4.97-64.598-9.557     c-30.209-6.759-54.135-16.141-69.54-28.114c-0.183-0.174-0.371-0.344-0.572-0.504c-2.573-2.043-4.832-4.074-6.803-6.115     c-0.098-0.103-0.197-0.205-0.294-0.308c-0.471-0.495-0.914-0.992-1.351-1.489c-0.131-0.15-0.269-0.297-0.398-0.448     c-1.364-1.594-2.739-3.162-4.127-4.704c-18.481-20.532-38.336-35.721-58.249-46.36c-12.1-6.465-21.66-9.997-27.405-11.41     c-2.899-0.713-5.961,0.141-8.072,2.252l-17.067,17.067c-0.152,0.148-0.302,0.29-0.454,0.437     c-4.979,4.819-10.116,9.403-15.576,13.919c-0.36,0.298-0.677,0.624-0.974,0.962c-50.259,41.583-91.486,42.039-124.608,18.011     c-4.712-3.418-8.801-7.08-12.233-10.724c-2.005-2.129-3.306-3.721-3.875-4.507c-3.513-4.854-10.803-4.672-14.068,0.353     c-15.304,23.55-20.281,50.859-17.749,79.479c0.878,9.923,2.616,19.313,4.892,27.902c0.017,0.063,0.034,0.124,0.05,0.187     C2.354,412.272,0,415.41,0,419.106v42.667c0,4.713,3.82,8.533,8.533,8.533H128c2.263,0,4.434-0.899,6.034-2.499l5.023-5.023     c3.325,0.881,7.602,1.995,10.95,2.821c12.248,3.022,25.955,6.028,40.89,8.834c60.297,11.33,121.841,16.171,179.488,10.821     c53.209-4.937,99.724-18.419,137.584-41.932c2.507-1.557,4.031-4.298,4.031-7.249v-25.402c0-0.026,0.003-0.049,0.003-0.075     v-0.128c0-0.852-0.123-1.661-0.343-2.419C509.85,399.399,504.151,392.105,495.981,385.856z M201.799,297.624     c0.139-0.135,0.281-0.264,0.42-0.399l13.504-13.503c0.511,0.18,1.059,0.377,1.642,0.592c5.124,1.893,10.868,4.448,17.078,7.75     l-10.073,10.073c-3.332,3.333-3.332,8.735,0,12.068c3.332,3.332,8.735,3.332,12.068,0l13.106-13.106     c5.206,3.467,10.389,7.291,15.52,11.509l-15.099,15.123c-3.33,3.335-3.326,8.738,0.01,12.068c3.335,3.33,8.738,3.326,12.068-0.01     l15.759-15.784c3.539,3.432,7.042,7.053,10.496,10.889c1.306,1.45,2.6,2.925,3.884,4.427c0.232,0.271,0.482,0.535,0.72,0.804     c0.367,0.416,0.734,0.832,1.114,1.243c0.137,0.148,0.279,0.294,0.418,0.441c0.597,0.636,1.21,1.266,1.837,1.889     c-16.382,13.676-40.692,14.172-57.709,0.063l-45.645-37.843C195.859,303.277,198.82,300.513,201.799,297.624z M27.172,322.703     c3.168,3.04,6.98,6.28,11.431,9.508c38.329,27.805,86.363,27.859,141.042-15.127l48.023,39.815     c24.327,20.169,59.454,18.665,81.996-2.288c17.505,11.831,41.546,20.715,70.722,27.244c21.334,4.774,44.113,7.973,66.88,9.907     c7.96,0.676,15.355,1.146,22,1.447c2.334,0.106,4.41,0.183,6.205,0.236c0.99,0.281,1.654,0.619,2.409,1.024     c2.65,1.419,5.299,3.081,7.731,4.942c3.026,2.315,5.405,4.703,7.035,7.072c-1.052,0.496-2.22,1.03-3.504,1.6     c-8.783,3.898-19.532,7.82-32.299,11.496c-78.249,22.534-186.451,25.19-327.154-5.133c-12.411-2.667-25.317-3.972-38.559-3.972     l-67.91,0.078c-0.364-1.223-0.751-2.588-1.132-4.026c-2.039-7.694-3.602-16.138-4.389-25.034     C15.834,360.408,18.564,340.403,27.172,322.703z M494.933,431.272c-34.663,20.475-77.271,32.462-126.125,36.995     c-55.852,5.183-115.894,0.46-174.76-10.601c-14.609-2.745-28.005-5.683-39.953-8.631c-5.607-1.384-14.074-3.645-15.757-4.121     c-2.828-0.613-5.783,0.235-7.839,2.291l-6.034,6.034H17.067v-25.61l74.07-0.084c12.092,0,23.782,1.181,34.954,3.589     c143.403,30.901,254.46,28.174,335.471,4.847c1.69-0.487,3.344-0.978,4.97-1.473c0.054-0.017,0.106-0.034,0.161-0.05     c1.542-0.47,3.056-0.944,4.541-1.422c0.307-0.099,0.6-0.199,0.905-0.297c1.223-0.398,2.437-0.796,3.622-1.198     c0.388-0.131,0.76-0.264,1.143-0.396c1.077-0.37,2.149-0.741,3.193-1.114c0.429-0.153,0.842-0.308,1.266-0.462     c0.976-0.354,1.948-0.709,2.894-1.066c0.439-0.165,0.862-0.331,1.295-0.497c0.905-0.347,1.805-0.693,2.682-1.042     c0.437-0.173,0.86-0.347,1.29-0.521c0.846-0.342,1.688-0.684,2.508-1.027c0.426-0.178,0.84-0.357,1.259-0.536     c0.547-0.233,1.109-0.466,1.643-0.699V431.272z" data-original="#000000" class="active-path" data-old_color="#000000" fill="#2646FF"/>
			<path d="M506.365,172.153c0.017-0.063,0.034-0.124,0.05-0.187c2.276-8.589,4.014-17.979,4.892-27.902     c2.531-28.619-2.445-55.929-17.749-79.479c-3.265-5.024-10.556-5.207-14.068-0.353c-0.568,0.785-1.869,2.377-3.875,4.506     c-3.432,3.644-7.521,7.306-12.233,10.724c-33.115,24.023-74.331,23.572-124.636-18.044c-0.289-0.326-0.597-0.641-0.945-0.929     c-5.458-4.514-10.595-9.098-15.649-13.991c-0.155-0.15-0.308-0.295-0.463-0.445l-16.985-16.986     c-2.111-2.111-5.172-2.965-8.072-2.252c-5.745,1.413-15.306,4.945-27.405,11.41c-19.913,10.639-39.768,25.828-58.249,46.36     c-1.387,1.542-2.763,3.109-4.127,4.704c-0.131,0.154-0.272,0.305-0.406,0.457c-0.433,0.493-0.874,0.986-1.341,1.478     c-0.099,0.105-0.2,0.209-0.299,0.313c-1.969,2.038-4.226,4.068-6.798,6.11c-0.201,0.16-0.389,0.33-0.572,0.504     c-15.406,11.973-39.332,21.355-69.541,28.114c-20.499,4.587-42.543,7.683-64.598,9.557c-7.727,0.656-14.899,1.113-21.328,1.404     c-3.834,0.174-6.552,0.254-7.964,0.276c-1.092,0.017-2.171,0.244-3.178,0.667c-3.843,1.617-9.284,4.532-14.801,8.752     c-8.17,6.25-13.869,13.544-15.679,22.2c-0.22,0.758-0.343,1.567-0.343,2.419v0.128c0,0.026,0.003,0.049,0.003,0.075v25.402     c0,2.951,1.524,5.692,4.031,7.249c37.86,23.513,84.374,36.995,137.583,41.932c57.647,5.349,119.191,0.508,179.488-10.821     c14.935-2.806,28.642-5.812,40.89-8.834c3.348-0.826,7.625-1.94,10.95-2.821l5.023,5.023c1.6,1.6,3.771,2.499,6.034,2.499     h119.467c4.713,0,8.533-3.82,8.533-8.533v-42.667C512.007,176.477,509.653,173.339,506.365,172.153z M217.564,102.885     c0.143-0.151,0.289-0.302,0.43-0.454c0.373-0.404,0.734-0.813,1.095-1.222c0.242-0.273,0.496-0.542,0.732-0.817     c1.288-1.507,2.583-2.982,3.889-4.432c3.454-3.836,6.957-7.456,10.496-10.889l15.759,15.784c3.33,3.335,8.733,3.339,12.068,0.01     c3.335-3.33,3.339-8.733,0.01-12.068l-15.099-15.123c5.131-4.218,10.315-8.042,15.52-11.509l13.106,13.106     c3.332,3.332,8.735,3.332,12.068,0s3.332-8.735,0-12.068L277.564,53.13c6.21-3.302,11.955-5.857,17.078-7.75     c0.583-0.215,1.13-0.413,1.642-0.592l13.421,13.421c0.14,0.137,0.282,0.265,0.422,0.401c3.007,2.917,5.997,5.707,8.968,8.37     l-45.649,37.847c-17.017,14.108-41.327,13.613-57.709-0.063C216.361,104.144,216.97,103.518,217.564,102.885z M26.395,160.477     c2.432-1.86,5.081-3.522,7.731-4.942c0.755-0.404,1.419-0.742,1.97-1.011c2.235-0.065,4.311-0.142,6.644-0.248     c6.645-0.301,14.04-0.771,22-1.447c22.767-1.934,45.545-5.134,66.88-9.907c29.176-6.528,53.217-15.413,70.722-27.244     c22.542,20.953,57.67,22.457,81.996,2.288l48.03-39.821c54.709,42.992,102.721,42.927,141.035,15.133     c4.451-3.229,8.263-6.468,11.431-9.508c8.608,17.7,11.338,37.705,9.473,58.791c-0.787,8.895-2.35,17.339-4.389,25.034     c-0.381,1.438-0.768,2.803-1.132,4.026l-67.9-0.078c-13.253,0-26.158,1.305-38.564,3.971     c-140.707,30.324-248.91,27.668-327.159,5.134c-12.767-3.677-23.516-7.598-32.299-11.496c-1.284-0.57-2.451-1.105-3.504-1.6     C20.99,165.181,23.369,162.792,26.395,160.477z M494.94,214.306H387.541l-6.034-6.034c-2.056-2.056-5.011-2.904-7.84-2.291     c-1.683,0.475-10.15,2.737-15.757,4.121c-11.948,2.948-25.344,5.886-39.953,8.631c-58.866,11.061-118.908,15.783-174.76,10.601     c-48.854-4.533-91.462-16.52-126.125-36.995v-7.089c0.532,0.232,1.091,0.463,1.635,0.695c0.423,0.18,0.841,0.361,1.272,0.541     c0.818,0.342,1.657,0.683,2.501,1.024c0.431,0.174,0.855,0.349,1.293,0.522c0.877,0.348,1.778,0.695,2.682,1.042     c0.432,0.166,0.856,0.332,1.295,0.497c0.946,0.357,1.918,0.711,2.894,1.066c0.423,0.154,0.837,0.308,1.266,0.462     c1.038,0.371,2.104,0.74,3.174,1.108c0.391,0.134,0.77,0.27,1.165,0.404c1.181,0.401,2.392,0.798,3.612,1.194     c0.306,0.1,0.602,0.2,0.911,0.299c1.461,0.47,2.952,0.936,4.468,1.399c0.081,0.025,0.157,0.05,0.238,0.074     c1.624,0.495,3.277,0.986,4.965,1.472c81.012,23.326,192.068,26.053,335.471-4.847c11.173-2.408,22.862-3.589,34.964-3.589     l74.061,0.084V214.306z" data-original="#000000" class="active-path" data-old_color="#000000" fill="#2646FF"/>
			<path d="M373.366,206.037c0.1-0.026,0.202-0.034,0.302-0.056C374.122,205.853,374.087,205.853,373.366,206.037z" data-original="#000000" class="active-path" data-old_color="#000000" fill="#2646FF"/>
		</g>
	</g>
</g></g> </svg>
