<?xml version="1.0" encoding="utf-8"?>
<!-- Generator: Adobe Illustrator 24.2.3, SVG Export Plug-In . SVG Version: 6.00 Build 0)  -->
<svg version="1.1" id="Capa_1" xmlns="http://www.w3.org/2000/svg" xmlns:xlink="http://www.w3.org/1999/xlink" x="0px" y="0px"
	 viewBox="0 0 512 512" style="enable-background:new 0 0 512 512;" xml:space="preserve">
<style type="text/css">
	.st0{fill:#919191;}
</style>
<g>
	<g>
		<path class="st0" d="M334.8,35.2c-8.5,5.7-13.6,15.4-13.6,25.9v117.7c-11.5,4.3-19.7,15.4-19.7,28.4v52.4h-9.9
			c-5.6,0-10.1,4.5-10.1,10.1v211.7c0,16.8,13.6,30.4,30.4,30.4h123.7c16.8,0,30.4-13.6,30.4-30.4V269.9c0-5.6-4.5-10.1-10.1-10.1
			H446v-52.4c0-13-8.2-24.1-19.7-28.4V31.1c0-11.6-6.2-22.2-16.3-27.5c-9.8-5.2-21.2-4.6-30.5,1.6L334.8,35.2z M390.9,21.9
			c6.9-4.6,15.2,1.5,15.2,9.1v145.9h-64.6V61.2c0-3.7,1.8-7.1,4.7-9.1L390.9,21.9z M321.8,207.3c0-5.6,4.5-10.1,10.1-10.1h83.7
			c5.6,0,10.1,4.5,10.1,10.1v52.4h-104v-52.4H321.8z M445.8,280v201.6c0,5.6-4.5,10.1-10.1,10.1H311.9c-5.6,0-10.1-4.5-10.1-10.1
			V280H445.8z"/>
		<path class="st0" d="M373.8,340.9c-24.8,0-45,20.2-45,45s20.2,45,45,45s45-20.2,45-45C418.7,361.1,398.6,340.9,373.8,340.9z
			 M373.8,410.6c-13.6,0-24.7-11.1-24.7-24.7s11.1-24.7,24.7-24.7s24.7,11.1,24.7,24.7S387.4,410.6,373.8,410.6z"/>
		<path class="st0" d="M46,298.3c0,13,20.3,13,20.3,0V280h144v139.7c0,39.7-32.3,72-72,72s-72-32.3-72-72v-40.2c0-13-20.3-13-20.3,0
			v40.2c0,50.9,41.4,92.3,92.3,92.3s92.3-41.4,92.3-92.3V187.1c0-5.6-4.5-10.1-10.1-10.1H56.1c-5.6,0-10.1,4.5-10.1,10.1V298.3z
			 M66.2,259.8v-62.6h144v62.6H66.2z"/>
		<path class="st0" d="M52.2,348.2c8.6,3.6,17.2-5.9,12.8-14.1c-2.1-3.9-6.6-6-10.9-5.2c-4.1,0.8-7.4,4.2-8,8.4
			C45.4,341.8,48,346.4,52.2,348.2z"/>
	</g>
</g>
</svg>
