<?xml version="1.0" encoding="utf-8"?>
<!-- Generator: Adobe Illustrator 24.2.3, SVG Export Plug-In . SVG Version: 6.00 Build 0)  -->
<svg version="1.1" id="Layer_1" xmlns="http://www.w3.org/2000/svg" xmlns:xlink="http://www.w3.org/1999/xlink" x="0px" y="0px"
	 viewBox="0 0 512 512" style="enable-background:new 0 0 512 512;" xml:space="preserve">
<style type="text/css">
	.st0{fill:#2646FF;}
</style>
<g>
	<g>
		<path class="st0" d="M334.7,257.1H281c-4.1,0-7.5,3.4-7.5,7.5s3.4,7.5,7.5,7.5h53.7c4.1,0,7.5-3.4,7.5-7.5
			S338.8,257.1,334.7,257.1z"/>
		<path class="st0" d="M334.7,298.8H281c-4.1,0-7.5,3.4-7.5,7.5s3.4,7.5,7.5,7.5h53.7c4.1,0,7.5-3.4,7.5-7.5
			S338.8,298.8,334.7,298.8z"/>
		<path class="st0" d="M334.7,340.6H281c-4.1,0-7.5,3.4-7.5,7.5s3.4,7.5,7.5,7.5h53.7c4.1,0,7.5-3.4,7.5-7.5
			S338.8,340.6,334.7,340.6z"/>
		<path class="st0" d="M245.6,242.6c0-2.5-1.3-4.9-3.4-6.3c-13.5-8.9-40.9-10.7-62.7,2.3v-15.8c0-4.1-3.4-7.5-7.5-7.5
			s-7.5,3.4-7.5,7.5v37.6c-11.3-2.2-22.4,0-32.3,6.4c-16.1,10.5-26.5,31.2-26.5,52.7c0,36.6,29.7,66.3,66.3,66.3
			s66.3-29.7,66.3-66.3c0-14.2-5-28.8-12.9-40.3C238.2,271.5,245.6,256.1,245.6,242.6L245.6,242.6z M172,370.8
			c-28.3,0-51.3-23-51.3-51.3c0-16.3,7.9-32.4,19.7-40.1c3.8-2.5,9.1-4.8,15.6-4.8c3.9,0,8.2,0.8,12.9,2.9c2.4,1,5.2,0.8,7.3-0.7
			c7.6-5.3,15.4-6,23.1-1.9c13.4,7,23.9,26.6,23.9,44.7C223.3,347.8,200.3,370.8,172,370.8z M215.1,267.6c-2.8-2.4-5.7-4.5-8.8-6.1
			c-8.7-4.6-18-5.5-26.8-2.8v-1.4c15.1-14.1,38.2-15.5,50.7-10.4C228.7,254.7,223.6,264.1,215.1,267.6z"/>
		<path class="st0" d="M443.8,360.4c-9.5-9.5-22.2-14.8-35.7-15V185c0-6.6-3.4-12.4-8.6-15.8v-5.9c0-25.8-20.6-46.9-46.2-47.7V90.2
			h6.5c10.5,0,19.1-8.6,19.1-19.1v-52C379,8.6,370.4,0,359.8,0H95.5C85,0,76.4,8.6,76.4,19.1v52c0,10.5,8.6,19.1,19.1,19.1h6.5v26
			c-22.8,3.6-40.2,23.4-40.2,47.1v5.9c-5.2,3.4-8.6,9.2-8.6,15.8v240.9c0,6.6,3.4,12.4,8.6,15.7v6c0,26.3,21.4,47.7,47.7,47.7h196
			c0.5,0.6,1.1,1.2,1.7,1.8c9.6,9.6,22.5,15,36.2,15c13.7,0,26.6-5.3,36.2-15l64.1-64.1C463.7,412.9,463.7,380.4,443.8,360.4
			L443.8,360.4z M95.5,75.2c-2.2,0-4.1-1.9-4.1-4.1v-52c0-2.2,1.9-4.1,4.1-4.1h264.3c2.2,0,4.1,1.9,4.1,4.1v52
			c0,2.2-1.9,4.1-4.1,4.1L95.5,75.2L95.5,75.2z M76.8,163.3c0-18,14.7-32.7,32.7-32.7H212c4.1,0,7.5-3.4,7.5-7.5s-3.4-7.5-7.5-7.5
			h-95V90.2h221.3v25.4H245c-4.1,0-7.5,3.4-7.5,7.5s3.4,7.5,7.5,7.5h106.8c18,0,32.7,14.7,32.7,32.7v2.9H76.8L76.8,163.3z
			 M307.2,424.5c-1.6,1.6-3.1,3.3-4.5,5.1h-55.9c-4.1,0-7.5,3.4-7.5,7.5s3.4,7.5,7.5,7.5h48c-3.8,11.6-3.4,24.3,1.2,35.6H109.5
			c-18,0-32.7-14.7-32.7-32.7v-2.9H212c4.1,0,7.5-3.4,7.5-7.5s-3.4-7.5-7.5-7.5H72c-0.3,0-0.5,0-0.8-0.1c-1.7-0.4-3-1.9-3-3.7V185
			c0-2.1,1.7-3.8,3.8-3.8h317.3c2,0,3.8,1.7,3.8,3.8v162.5c-8.2,2.4-15.6,6.8-21.8,12.9L307.2,424.5
			C307.2,424.5,307.2,424.5,307.2,424.5L307.2,424.5z M369.1,486.4c-6.8,6.8-15.9,10.6-25.6,10.6c-9.7,0-18.8-3.8-25.6-10.6
			c-14.1-14.1-14.1-37.1,0-51.3l0,0l26.8-26.8l51.3,51.3L369.1,486.4z M433.2,422.3l-26.8,26.8l-51.3-51.3l26.8-26.7
			c6.8-6.8,15.9-10.6,25.6-10.6c9.7,0,18.8,3.8,25.6,10.6C447.3,385.2,447.3,408.2,433.2,422.3L433.2,422.3z"/>
		<path class="st0" d="M125,62.7c4.1,0,7.5-3.4,7.5-7.5V35.1c0-4.1-3.4-7.5-7.5-7.5s-7.5,3.4-7.5,7.5v20.1
			C117.5,59.3,120.9,62.7,125,62.7z"/>
		<path class="st0" d="M176.3,62.7c4.1,0,7.5-3.4,7.5-7.5V35.1c0-4.1-3.4-7.5-7.5-7.5s-7.5,3.4-7.5,7.5v20.1
			C168.8,59.3,172.2,62.7,176.3,62.7z"/>
		<path class="st0" d="M227.7,62.7c4.1,0,7.5-3.4,7.5-7.5V35.1c0-4.1-3.4-7.5-7.5-7.5s-7.5,3.4-7.5,7.5v20.1
			C220.2,59.3,223.5,62.7,227.7,62.7z"/>
		<path class="st0" d="M279,62.7c4.1,0,7.5-3.4,7.5-7.5V35.1c0-4.1-3.4-7.5-7.5-7.5s-7.5,3.4-7.5,7.5v20.1
			C271.5,59.3,274.9,62.7,279,62.7z"/>
		<path class="st0" d="M330.3,62.7c4.1,0,7.5-3.4,7.5-7.5V35.1c0-4.1-3.4-7.5-7.5-7.5s-7.5,3.4-7.5,7.5v20.1
			C322.8,59.3,326.2,62.7,330.3,62.7z"/>
	</g>
</g>
</svg>
