<?xml version="1.0" encoding="iso-8859-1"?>
<!-- Generator: Adobe Illustrator 19.1.0, SVG Export Plug-In . SVG Version: 6.00 Build 0)  -->
<svg xmlns="http://www.w3.org/2000/svg" xmlns:xlink="http://www.w3.org/1999/xlink" version="1.1" id="Capa_1" x="0px" y="0px" viewBox="0 0 66.915 66.915" style="enable-background:new 0 0 66.915 66.915;" xml:space="preserve" width="512px" height="512px">
<g>
	<g>
		<path d="M46.133,20.688c-0.781-0.781-2.047-0.781-2.828,0l-9.899,9.899l-9.9-9.899c-0.781-0.781-2.047-0.781-2.828,0    s-0.781,2.047,0,2.828l9.9,9.899l-9.9,9.899c-0.781,0.781-0.781,2.047,0,2.828c0.391,0.391,0.902,0.586,1.414,0.586    s1.023-0.195,1.414-0.586l9.9-9.899l9.899,9.899c0.391,0.391,0.902,0.586,1.414,0.586s1.023-0.195,1.414-0.586    c0.781-0.781,0.781-2.047,0-2.828l-9.899-9.899l9.899-9.899C46.914,22.735,46.914,21.468,46.133,20.688z" fill="#FFFFFF"/>
		<path d="M57.107,9.8C50.788,3.481,42.386,0,33.449,0S16.112,3.48,9.792,9.8c-13.045,13.045-13.045,34.271,0,47.315    c6.318,6.319,14.721,9.8,23.657,9.8c8.938,0,17.34-3.48,23.659-9.8c6.319-6.318,9.799-14.721,9.799-23.658    C66.906,24.521,63.426,16.119,57.107,9.8z M54.281,54.287c-5.564,5.563-12.962,8.628-20.831,8.628    c-7.868,0-15.266-3.064-20.829-8.628c-11.485-11.485-11.485-30.174,0-41.659C18.185,7.064,25.581,4,33.449,4    s15.266,3.064,20.829,8.627s8.628,12.961,8.629,20.83C62.907,41.326,59.844,48.724,54.281,54.287z" fill="#FFFFFF"/>
	</g>
</g>
<g>
</g>
<g>
</g>
<g>
</g>
<g>
</g>
<g>
</g>
<g>
</g>
<g>
</g>
<g>
</g>
<g>
</g>
<g>
</g>
<g>
</g>
<g>
</g>
<g>
</g>
<g>
</g>
<g>
</g>
</svg>
