<?xml version="1.0" encoding="utf-8"?>
<!-- Generator: Adobe Illustrator 24.0.1, SVG Export Plug-In . SVG Version: 6.00 Build 0)  -->
<svg version="1.1" id="Layer_1" xmlns="http://www.w3.org/2000/svg" xmlns:xlink="http://www.w3.org/1999/xlink" x="0px" y="0px"
	 viewBox="0 0 55 55" style="enable-background:new 0 0 55 55;" xml:space="preserve">
<style type="text/css">
	.st0{fill:#47B475;}
	.st1{opacity:0.5;fill:none;stroke:#8C9799;stroke-width:0.95;enable-background:new    ;}
</style>
<g>
	<path class="st0" d="M33.5,29c0,3.3-2.7,6-6,6s-6-2.7-6-6s2.7-6,6-6S33.5,25.7,33.5,29z"/>
	<polygon class="st1" points="49,40.4 49,15.6 27.5,3.2 6,15.6 6,40.4 27.5,52.8 	"/>
	<path class="st0" d="M27.5,7c-1.7,0-3-1.3-3-3s1.3-3,3-3s3,1.3,3,3S29.2,7,27.5,7z"/>
	<path class="st0" d="M27.5,54.4c-1.7,0-3-1.3-3-3s1.3-3,3-3s3,1.3,3,3S29.2,54.4,27.5,54.4z"/>
</g>
<g>
	<polyline class="st1" points="49,36.9 54.3,27.5 49,18.1 	"/>
</g>
<g>
	<polyline class="st1" points="6,18 0.6,27.5 6,37 	"/>
</g>
</svg>
