<?xml version="1.0" encoding="utf-8"?>
<!-- Generator: Adobe Illustrator 21.1.0, SVG Export Plug-In . SVG Version: 6.00 Build 0)  -->
<svg version="1.1" id="Layer_1" xmlns="http://www.w3.org/2000/svg" xmlns:xlink="http://www.w3.org/1999/xlink" x="0px" y="0px"
	 viewBox="0 0 2560 516" style="enable-background:new 0 0 2560 516;" xml:space="preserve">
<style type="text/css">
	.st0{fill-rule:evenodd;clip-rule:evenodd;fill:#051146;}
	.st1{fill-rule:evenodd;clip-rule:evenodd;fill:#051F61;}
</style>
<path class="st0" d="M2560,516H0L0-0.5l2560,0V516z"/>
<path class="st1" d="M2560,291.4c-13.7,7.1-27.9,13.4-42.1,19.1c-51.7,20.8-105.6,36-160.5,45.3c-37.8,6.4-78.2,12.8-117.4,11
	c-16-0.7-31.8-2.8-47.1-6.8c-71.8-18.7-131.9-66.4-197.3-101.3c-58.1-31-121.5-52.3-186.6-62.6c-76.9-12.2-161-11.1-223.8-57.1
	c-27.3-20-49.5-51.5-46.6-85.2c1.8-21,13.4-40.1,29.1-54.3h165.4l314.3,0h95.4H2560V291.4z"/>
<path class="st1" d="M0,206.6c24.8-18.9,54-32.2,84.8-36c40.6-5,78.9,7.4,118.6,13.1c81,11.7,162.6-1.8,240.8-23
	c31.4-8.5,64.4-22.5,97-25.5c31.8-2.9,63.1-8.6,105.4,0.4c42.3,9.1,83.7,28.3,111.7,61.2c19.5,22.9,31.9,51.4,52.8,73.1
	c17.4,18,39.7,30.3,62.3,41.1c45.1,21.7,92.5,38.8,141.1,50.9c36.1,9,73.8,15.6,105.1,35.7c37.7,24.3,62.3,68.7,60.4,113.5
	c-0.1,1.6-0.2,3.2-0.3,4.8c-54.5,0-109.1,0-163.6,0c-113.5,0-227,0-340.5,0c-97.5,0-195,0-292.5,0c0,0,0,0,0,0h-48.5c0,0,0,0,0,0
	c-3.6-0.2-7.3-0.1-10.9,0H0L0,206.6z"/>
</svg>
