<?xml version="1.0"?>
<svg xmlns="http://www.w3.org/2000/svg" xmlns:xlink="http://www.w3.org/1999/xlink" version="1.1" id="Layer_1" x="0px" y="0px" viewBox="0 0 485 485" style="enable-background:new 0 0 485 485;" xml:space="preserve" width="512px" height="512px"><g><g>
	<g>
		<path d="M425.205,418.208H59.795C26.824,418.208,0,391.384,0,358.413c0-24.374,14.575-46.096,37.132-55.341L227.5,225.054v-55.4    h15c20.088,0,36.431-16.343,36.431-36.431S262.588,96.792,242.5,96.792s-36.431,16.343-36.431,36.431h-30    c0-36.63,29.801-66.431,66.431-66.431s66.431,29.801,66.431,66.431c0,31.472-22.002,57.904-51.431,64.723v27.107l190.368,78.019    C470.425,312.317,485,334.04,485,358.413C485,391.384,458.176,418.208,425.205,418.208z M242.5,251.328L48.509,330.832    C37.265,335.44,30,346.266,30,358.413c0,16.429,13.366,29.794,29.795,29.794h365.41c16.429,0,29.795-13.366,29.795-29.794    c0-12.147-7.265-22.973-18.509-27.581L242.5,251.328z" data-original="#000000" class="active-path" data-old_color="#000000" fill="#2646FF"/>
	</g>
</g></g> </svg>
